#!OML:ASF I:\Actors\actors\Patient Classification 1\Patient 1\Session 1\Subject1.ASF
:FULLY-SPECIFIED
:DEGREES
993
root 1.08389 17.4782 9.14825 7.51081 3.81776 -8.0915
lowerback -1.60312 1.85774 6.79643
upperback -6.87142 2.68085 0.794098
thorax -6.01476 0.990604 -3.05828
lowerneck -6.95164 -5.02656 -5.03623
upperneck 12.7827 -7.95992 12.4217
head 5.69855 -3.33029 4.15857
rclavicle 6.80837e-015 -7.55382e-015
rhumerus -77.8401 28.9157 -91.0204
rradius 124.779
rwrist -9.74254
rhand 65.4016 -62.2955
rfingers 7.12502
rthumb 74.8545 -370.007
lclavicle 6.80837e-015 -7.55382e-015
lhumerus -34.2545 -13.2335 95.4725
lradius 135.359
lwrist 52.3679
lhand 8.71354 -4.799
lfingers 7.12502
lthumb 33.9052 22.0058
rfemur -2.7616 23.3345 24.1197
rtibia 4.73332
rfoot -15.4174 -30.0048
rtoes 5.70566
lfemur 3.91899 -40.7024 -13.2619
ltibia -5.07062
lfoot -12.2721 45.515
ltoes 4.81514
994
root 1.09307 17.4664 9.13365 7.96533 3.59085 -8.24383
lowerback -1.95965 1.88942 7.04139
upperback -7.09312 2.71125 0.859666
thorax -6.0424 0.98886 -3.11711
lowerneck -6.98353 -4.5936 -4.55997
upperneck 13.1945 -7.38431 11.8865
head 5.74007 -3.04771 3.95789
rclavicle -1.8487e-014 1.51076e-014
rhumerus -78.3867 28.7958 -91.0723
rradius 124.777
rwrist -11.3164
rhand 65.4194 -62.4931
rfingers 7.12502
rthumb 74.8522 -370.14
lclavicle -1.8487e-014 1.51076e-014
lhumerus -31.4541 -16.7109 95.8618
lradius 136.786
lwrist 53.4944
lhand 11.2729 -5.33452
lfingers 7.12502
lthumb 36.3326 20.8996
rfemur -3.67156 22.7994 23.8741
rtibia 5.08127
rfoot -15.1394 -29.2773
rtoes 5.11473
lfemur 3.2562 -40.8504 -12.7546
ltibia -4.98196
lfoot -12.7295 45.8964
ltoes 5.72327
995
root 1.09311 17.4673 9.13119 7.93351 3.73956 -8.21219
lowerback -2.01768 1.72607 6.99014
upperback -7.15852 2.49418 0.94196
thorax -6.10727 0.882741 -2.99658
lowerneck -7.01749 -4.10646 -4.17054
upperneck 13.6394 -6.74565 11.4859
head 5.80092 -2.7291 3.81948
rclavicle 1.71452e-014 2.66371e-014
rhumerus -78.8886 28.9247 -91.3636
rradius 124.716
rwrist -12.4512
rhand 64.7754 -61.3846
rfingers 7.12502
rthumb 74.9214 -371.402
lclavicle 1.71452e-014 2.66371e-014
lhumerus -28.6257 -20.0105 95.9419
lradius 138.016
lwrist 54.6696
lhand 12.7208 -6.07432
lfingers 7.12502
lthumb 37.7022 19.8053
rfemur -3.60385 22.787 23.8637
rtibia 5.04083
rfoot -15.1984 -29.3988
rtoes 5.2593
lfemur 3.26539 -41.0381 -12.8064
ltibia -4.98645
lfoot -12.6378 45.9665
ltoes 5.65201
996
root 1.09236 17.4676 9.12745 7.92325 3.78784 -8.16309
lowerback -2.03511 1.60051 6.92467
upperback -7.28481 2.33218 0.981757
thorax -6.25332 0.799425 -2.91589
lowerneck -7.0709 -3.60945 -3.98676
upperneck 14.2636 -6.13966 11.4457
head 5.94646 -2.40635 3.82954
rclavicle -2.25621e-014 -3.4191e-014
rhumerus -79.494 29.1427 -92.0331
rradius 124.661
rwrist -12.8883
rhand 64.4757 -60.836
rfingers 7.12502
rthumb 74.9446 -371.963
lclavicle -2.25621e-014 -3.4191e-014
lhumerus -25.9691 -23.221 95.744
lradius 139.129
lwrist 55.3959
lhand 12.7205 -6.6194
lfingers 7.12502
lthumb 37.7019 19.2603
rfemur -3.59906 22.8021 23.8117
rtibia 5.05131
rfoot -15.2756 -29.4376
rtoes 5.43808
lfemur 3.31982 -41.3227 -12.9176
ltibia -5.00031
lfoot -12.5762 46.1967
ltoes 5.59236
997
root 1.09056 17.4673 9.12475 7.88607 3.74753 -8.04168
lowerback -2.0332 1.52769 6.78636
upperback -7.36412 2.23538 0.961875
thorax -6.35177 0.75353 -2.85846
lowerneck -7.62678 -3.21881 -4.18319
upperneck 15.445 -5.76856 11.9357
head 6.40332 -2.146 4.05935
rclavicle -1.16786e-014 -3.97569e-015
rhumerus -80.0505 29.3171 -92.9121
rradius 124.612
rwrist -12.7301
rhand 64.7433 -61.1294
rfingers 7.12502
rthumb 74.9242 -371.266
lclavicle -1.16786e-014 -3.97569e-015
lhumerus -23.2868 -26.1993 95.2249
lradius 140.005
lwrist 55.4663
lhand 12.26 -7.16212
lfingers 7.12502
lthumb 37.2666 18.833
rfemur -3.55612 22.7939 23.6834
rtibia 5.02714
rfoot -15.2434 -29.4252
rtoes 5.27397
lfemur 3.46324 -41.5033 -13.1763
ltibia -5.00972
lfoot -12.6171 46.3752
ltoes 5.72203
998
root 1.08998 17.4667 9.12113 7.83144 3.67452 -7.92529
lowerback -2.01748 1.47089 6.69263
upperback -7.39047 2.15797 0.923028
thorax -6.39717 0.716968 -2.84573
lowerneck -7.89315 -2.77623 -3.78977
upperneck 16.0266 -5.25815 11.8771
head 6.57908 -1.85257 4.0232
rclavicle -6.36111e-015 8.74653e-015
rhumerus -80.4636 29.4382 -93.8213
rradius 124.532
rwrist -12.2118
rhand 65.1599 -61.3182
rfingers 7.12502
rthumb 74.8833 -369.917
lclavicle -6.36111e-015 8.74653e-015
lhumerus -20.5774 -28.6074 94.4643
lradius 140.658
lwrist 55.51
lhand 11.6073 -7.26892
lfingers 7.12502
lthumb 36.6492 18.8854
rfemur -3.50981 22.7584 23.5587
rtibia 5.03861
rfoot -15.2206 -29.3523
rtoes 5.21996
lfemur 3.59935 -41.5358 -13.4154
ltibia -5.01584
lfoot -12.7365 46.4415
ltoes 5.77446
999
root 1.07831 17.479 9.13106 7.35112 3.89616 -7.85546
lowerback -1.78018 1.27322 6.47842
upperback -7.28638 1.90561 0.961126
thorax -6.45016 0.60547 -2.68451
lowerneck -8.08355 -2.33177 -3.25986
upperneck 16.5441 -4.73364 11.6642
head 6.71694 -1.56015 3.91532
rclavicle -1.00386e-014 -2.70347e-014
rhumerus -80.8095 29.5014 -94.6504
rradius 124.385
rwrist -11.7907
rhand 65.4978 -61.0085
rfingers 7.12502
rthumb 74.842 -368.368
lclavicle -1.00386e-014 -2.70347e-014
lhumerus -18.1449 -30.4203 93.6871
lradius 141.194
lwrist 55.9773
lhand 10.531 -6.84083
lfingers 7.12502
lthumb 35.6298 19.5658
rfemur -2.60088 23.3173 23.9163
rtibia 4.76707
rfoot -15.6397 -30.0346
rtoes 6.3707
lfemur 4.31799 -41.3455 -13.8289
ltibia -5.18838
lfoot -12.4432 46.0413
ltoes 5.20812
1000
root 1.07448 17.4831 9.13314 7.1954 3.78845 -7.85122
lowerback -1.6992 1.23123 6.44442
upperback -7.2925 1.85579 0.970719
thorax -6.50887 0.580829 -2.65601
lowerneck -8.33488 -1.91448 -2.719
upperneck 17.0878 -4.25041 11.4385
head 6.88228 -1.28471 3.79907
rclavicle 2.53947e-014 -9.14409e-015
rhumerus -80.9515 29.4296 -95.2228
rradius 124.19
rwrist -11.8057
rhand 65.4788 -60.6195
rfingers 7.12502
rthumb 74.8445 -368.049
lclavicle 2.53947e-014 -9.14409e-015
lhumerus -16.0627 -31.9278 92.9274
lradius 141.638
lwrist 56.604
lhand 9.67467 -6.52195
lfingers 7.12502
lthumb 34.8177 20.0765
rfemur -2.36198 23.5222 24.0389
rtibia 4.72352
rfoot -15.664 -30.1502
rtoes 6.46923
lfemur 4.63012 -41.2918 -14.0131
ltibia -5.22746
lfoot -12.565 46.0598
ltoes 5.44562
1001
root 1.07555 17.4832 9.13142 7.1773 3.53306 -7.82046
lowerback -1.68139 1.28487 6.5071
upperback -7.33347 1.92882 0.909345
thorax -6.55371 0.608825 -2.75848
lowerneck -8.74633 -1.58323 -2.62692
upperneck 17.8345 -3.93436 11.7226
head 7.17655 -1.06449 3.91969
rclavicle -1.5207e-014 3.81667e-014
rhumerus -80.8876 29.1548 -95.559
rradius 123.968
rwrist -12.1701
rhand 65.0511 -60.3681
rfingers 7.12502
rthumb 74.895 -369.368
lclavicle -1.5207e-014 3.81667e-014
lhumerus -14.2765 -33.2644 92.1517
lradius 141.975
lwrist 57.0285
lhand 9.29702 -6.65084
lfingers 7.12502
lthumb 34.4593 20.0298
rfemur -2.41711 23.4802 23.9723
rtibia 4.77356
rfoot -15.4994 -29.935
rtoes 6.05948
lfemur 4.77631 -41.2792 -14.1817
ltibia -5.20957
lfoot -12.7799 46.2708
ltoes 5.73225
1002
root 1.07699 17.4839 9.13084 7.1421 3.31758 -7.77532
lowerback -1.65679 1.30227 6.54725
upperback -7.35866 1.95453 0.884514
thorax -6.59128 0.616393 -2.80861
lowerneck -8.88663 -1.23807 -2.43807
upperneck 18.2287 -3.5476 11.8423
head 7.29853 -0.837659 3.97119
rclavicle -1.62506e-014 -2.38542e-015
rhumerus -80.6935 28.9172 -95.6689
rradius 123.794
rwrist -12.4311
rhand 64.7138 -60.429
rfingers 7.12502
rthumb 74.9266 -370.674
lclavicle -1.62506e-014 -2.38542e-015
lhumerus -12.7823 -34.2145 91.4543
lradius 142.203
lwrist 57.0924
lhand 9.0382 -7.03926
lfingers 7.12502
lthumb 34.2135 19.6968
rfemur -2.42037 23.4813 23.9037
rtibia 4.80362
rfoot -15.4287 -29.7565
rtoes 5.90268
lfemur 4.92202 -41.2132 -14.3459
ltibia -5.22464
lfoot -12.8458 46.4023
ltoes 5.73443
1003
root 1.07825 17.4841 9.13195 7.12666 3.14173 -7.76039
lowerback -1.67982 1.25266 6.54759
upperback -7.36563 1.88973 0.954263
thorax -6.59409 0.58617 -2.73291
lowerneck -9.04873 -0.857359 -2.08443
upperneck 18.5707 -3.07754 11.6651
head 7.39552 -0.586386 3.90225
rclavicle -4.02539e-015 -2.50469e-014
rhumerus -80.3274 28.9006 -95.5366
rradius 123.773
rwrist -12.1003
rhand 65.1904 -61.536
rfingers 7.12502
rthumb 74.8799 -370.023
lclavicle -4.02539e-015 -2.50469e-014
lhumerus -11.605 -34.7284 90.866
lradius 142.409
lwrist 56.9002
lhand 8.7671 -7.45133
lfingers 7.12502
lthumb 33.9561 19.3422
rfemur -2.43549 23.5019 23.8673
rtibia 4.8266
rfoot -15.3431 -29.6276
rtoes 5.7007
lfemur 5.05272 -41.251 -14.4569
ltibia -5.25763
lfoot -12.9081 46.5818
ltoes 5.77645
